<?xml version="1.0" encoding="UTF-8"?>
<svg id="Layer_1" data-name="Layer 1" xmlns="http://www.w3.org/2000/svg" viewBox="0 0 707.41 619.92">
  <defs>
    <style>
      .cls-1 {
        fill: #f9cca7;
      }

      .cls-2 {
        fill: #1c3050;
      }

      .cls-3 {
        fill: #203251;
      }

      .cls-4 {
        fill: #1c2d4e;
      }

      .cls-5 {
        fill: #1b2b4a;
      }

      .cls-6 {
        fill: #1b2d4e;
      }

      .cls-7 {
        fill: #192d4d;
      }

      .cls-8 {
        fill: #f8b77f;
      }

      .cls-9 {
        fill: #142c50;
      }

      .cls-10 {
        fill: #fdd5ae;
      }

      .cls-11 {
        fill: #1b2d4b;
      }

      .cls-12 {
        fill: #ffe7cf;
      }

      .cls-13 {
        fill: #162b4c;
      }

      .cls-14 {
        fill: #1f3353;
      }

      .cls-15 {
        fill: #fefefe;
      }

      .cls-16 {
        fill: #122b4e;
      }

      .cls-17 {
        fill: #11274a;
      }

      .cls-18 {
        fill: #0e2a4a;
      }

      .cls-19 {
        fill: #f4a46e;
      }

      .cls-20 {
        fill: #f8a266;
      }

      .cls-21 {
        fill: #1f3150;
      }

      .cls-22 {
        fill: #fdd8b6;
      }

      .cls-23 {
        fill: #213151;
      }

      .cls-24 {
        fill: #fff;
      }

      .cls-25 {
        fill: #fef0e2;
      }

      .cls-26 {
        fill: #fccaa3;
      }

      .cls-27 {
        fill: #fbc69c;
      }

      .cls-28 {
        fill: #182b4e;
      }

      .cls-29 {
        fill: #1e3353;
      }

      .cls-30 {
        fill: #fccfa9;
      }

      .cls-31 {
        fill: #192b4d;
      }

      .cls-32 {
        fill: #f09d63;
      }

      .cls-33 {
        fill: #f9c49d;
      }

      .cls-34 {
        fill: #f5a86f;
      }

      .cls-35 {
        fill: #1b2d4d;
      }

      .cls-36 {
        fill: #091738;
      }

      .cls-37 {
        fill: #233252;
      }

      .cls-38 {
        fill: #fee5ca;
      }

      .cls-39 {
        fill: #182d4d;
      }

      .cls-40 {
        fill: #fcceaa;
      }

      .cls-41 {
        fill: #1d2f50;
      }

      .cls-42 {
        fill: #fdcfa4;
      }

      .cls-43 {
        fill: #fbc394;
      }

      .cls-44 {
        fill: #f57e23;
      }

      .cls-45 {
        fill: #20324e;
      }

      .cls-46 {
        fill: #f9caa3;
      }

      .cls-47 {
        fill: #f79e5e;
      }

      .cls-48 {
        fill: #192c4d;
      }

      .cls-49 {
        fill: #1f2f4f;
      }

      .cls-50 {
        fill: #fedab9;
      }

      .cls-51 {
        fill: #20314f;
      }

      .cls-52 {
        fill: #fcdcb9;
      }

      .cls-53 {
        fill: #fde0c2;
      }

      .cls-54 {
        fill: #fbcda7;
      }

      .cls-55 {
        fill: #172a4a;
      }

      .cls-56 {
        fill: #37435c;
      }

      .cls-57 {
        fill: #f1a36a;
      }

      .cls-58 {
        fill: #fdcea6;
      }

      .cls-59 {
        fill: #273853;
      }

      .cls-60 {
        fill: #fed7b2;
      }

      .cls-61 {
        fill: #2a3955;
      }

      .cls-62 {
        fill: #f3a46e;
      }

      .cls-63 {
        fill: #fde9d6;
      }

      .cls-64 {
        fill: #1a2d4d;
      }

      .cls-65 {
        fill: #f2a66e;
      }

      .cls-66 {
        fill: #fed7b5;
      }

      .cls-67 {
        fill: #162c53;
      }

      .cls-68 {
        fill: #253555;
      }

      .cls-69 {
        fill: #1d2f4e;
      }

      .cls-70 {
        fill: #f7c39b;
      }

      .cls-71 {
        fill: #1b315d;
      }

      .cls-72 {
        fill: #213250;
      }

      .cls-73 {
        fill: #fedfbf;
      }

      .cls-74 {
        fill: #1f3250;
      }

      .cls-75 {
        fill: #122c50;
      }

      .cls-76 {
        fill: #fdd3b3;
      }

      .cls-77 {
        fill: #1c2d4d;
      }

      .cls-78 {
        fill: #df752e;
      }

      .cls-79 {
        fill: #2b3959;
      }

      .cls-80 {
        fill: #fdd6b2;
      }

      .cls-81 {
        fill: #243753;
      }

      .cls-82 {
        fill: #263757;
      }

      .cls-83 {
        fill: #1a2d57;
      }

      .cls-84 {
        fill: #172b4c;
      }

      .cls-85 {
        fill: #f57f24;
      }

      .cls-86 {
        fill: #1f324f;
      }

      .cls-87 {
        fill: #f57e24;
      }

      .cls-88 {
        fill: #fbc9a1;
      }

      .cls-89 {
        fill: #fbcfab;
      }

      .cls-90 {
        fill: #1a2b56;
      }

      .cls-91 {
        fill: #fee6ce;
      }

      .cls-92 {
        fill: #fdcba4;
      }

      .cls-93 {
        fill: #fdd1ae;
      }

      .cls-94 {
        fill: #213251;
      }

      .cls-95 {
        fill: #fdcc9f;
      }

      .cls-96 {
        fill: #f9c18f;
      }

      .cls-97 {
        fill: #f6af7a;
      }

      .cls-98 {
        fill: #f47d24;
      }

      .cls-99 {
        fill: #1d3152;
      }

      .cls-100 {
        fill: #1e3053;
      }

      .cls-101 {
        fill: #243554;
      }

      .cls-102 {
        fill: #fbd4b3;
      }

      .cls-103 {
        fill: #293a54;
      }

      .cls-104 {
        fill: #243550;
      }

      .cls-105 {
        fill: #1d2e4f;
      }

      .cls-106 {
        fill: #fee3c4;
      }

      .cls-107 {
        fill: #1c3153;
      }

      .cls-108 {
        fill: #fde2c6;
      }

      .cls-109 {
        fill: #fee0c1;
      }

      .cls-110 {
        fill: #203350;
      }

      .cls-111 {
        fill: #1c2e51;
      }

      .cls-112 {
        fill: #f9be8f;
      }

      .cls-113 {
        fill: #263654;
      }

      .cls-114 {
        fill: #fee6cd;
      }

      .cls-115 {
        fill: #fdd9b7;
      }

      .cls-116 {
        fill: #233351;
      }

      .cls-117 {
        fill: #fccba6;
      }

      .cls-118 {
        fill: #1c2f4f;
      }

      .cls-119 {
        fill: #f57f23;
      }

      .cls-120 {
        fill: #ea7b28;
      }

      .cls-121 {
        fill: #fcc79a;
      }

      .cls-122 {
        fill: #1a2b4b;
      }

      .cls-123 {
        fill: #1a2e4e;
      }

      .cls-124 {
        fill: #283957;
      }

      .cls-125 {
        fill: #fee5cb;
      }

      .cls-126 {
        fill: #989fb4;
      }

      .cls-127 {
        fill: #fed6b3;
      }

      .cls-128 {
        fill: #1b325d;
      }

      .cls-129 {
        fill: #1c2e4d;
      }

      .cls-130 {
        fill: #f8aa70;
      }

      .cls-131 {
        fill: #192b4c;
      }

      .cls-132 {
        fill: #132b50;
      }

      .cls-133 {
        fill: #fedcbd;
      }

      .cls-134 {
        fill: #f3a870;
      }

      .cls-135 {
        fill: #192f52;
      }
    </style>
  </defs>
  <path class="cls-24" d="M427.41,54.98c-33,54-6,22-14,22s-24-23-19,32-11-10,11-32-109,122-109,122"/>
  <path class="cls-24" d="M90.41,244.48c3.22,0,3.22-5,0-5s-3.22,5,0,5h0Z"/>
  <path class="cls-24" d="M394.66,83.2c-3.84,11.11-8.68,21.83-14.47,32.06l4.57.6c-4.29-15.9,3.08-31.72,11.32-45,2.5-4.03,5.18-7.96,7.9-11.84l-4.66-1.26c.29,8.47-.03,16.95-.97,25.38-.46,4.11-1.08,8.2-1.85,12.26-.4,2.14-.85,4.27-1.33,6.4-.29,1.26-.42,2.69-1.44,3.54.13-.11-.33,0,0,.01-.41-.01.05.11-.34-.05.3.13-.4-.23-.49-.3-.13-.09-.31-.28-.51-.49-.86-.9-1.47-2.09-1.85-3.27-.49-1.52-.59-3.13-.73-4.72-.17-1.94-.28-3.89-.32-5.85-.17-7.52.63-15.03,2.38-22.35,1.98-8.25,5.12-16.15,9.38-23.48l-4.66-1.26c.12,26.6-4.95,52.82-11.1,78.59-1.75,7.33-3.59,14.63-5.43,21.94l4.91.66c-2.07-18.47-.21-37.05,3.26-55.23,3.55-18.54,8.61-36.75,12.84-55.14,2.38-10.34,4.48-20.74,5.91-31.26.18-1.34-.32-2.68-1.75-3.08-1.24-.34-2.8.42-3.08,1.75-6.74,32.07-13.48,64.14-20.22,96.21-1.88,8.95-3.76,17.91-5.64,26.86l4.82,1.33c4.49-23.08,10.08-45.95,16.78-68.49,1.88-6.33,3.85-12.63,5.9-18.91l-4.82-1.33c-7.38,31.31-14.76,62.61-22.14,93.92-2.06,8.76-4.13,17.52-6.19,26.28l4.91.66c.57-31.21,9.95-61.34,20.9-90.29,3.1-8.19,6.34-16.33,9.58-24.46l-4.91-.66c-2.87,25.06-8.93,49.76-17.9,73.34-2.52,6.63-5.28,13.16-8.27,19.59l4.66,1.26c3.43-30.16,9.83-59.98,18.99-88.91,2.57-8.11,5.37-16.15,8.37-24.12l-4.82-1.33c-4.11,22.68-9.25,45.17-15.42,67.37-1.75,6.31-3.59,12.6-5.51,18.86l4.91.66c1.66-19.73,4.73-39.33,9.18-58.63,1.27-5.51,2.65-10.99,4.14-16.44.85-3.11-3.91-4.41-4.82-1.33-6.9,23.34-13.8,46.69-20.7,70.03-1.95,6.61-3.91,13.23-5.86,19.84l4.91.66c-.04-18.39,2.4-36.72,7.3-54.45,1.4-5.07,3-10.08,4.78-15.02l-4.82-1.33c-4.24,31.43-8.49,62.87-12.73,94.3-1.2,8.89-2.4,17.77-3.6,26.66-.18,1.34.32,2.68,1.75,3.08,1.27.35,2.76-.43,3.08-1.75,4.5-18.79,9.55-37.45,15.14-55.94,5.59-18.49,11.72-36.82,18.39-54.96,3.75-10.19,7.66-20.32,11.74-30.38l-4.91-.66c-2.62,26.37-6.27,52.63-10.95,78.71-1.33,7.42-2.75,14.83-4.25,22.22l4.91.66c-.2-19.76.99-39.55,3.66-59.14.75-5.52,1.62-11.02,2.6-16.51.24-1.33-.36-2.69-1.75-3.08-1.24-.34-2.8.42-3.08,1.75-5.82,28.05-12.29,55.97-19.42,83.73-1.99,7.77-4.04,15.53-6.14,23.27l4.91.66c-1.61-18.08,1.82-35.94,7.1-53.17s12.57-34.71,18.57-52.17c3.37-9.81,6.37-19.75,8.45-29.92l-4.91-.66c-2.28,21.28-4.89,42.52-7.85,63.72-2.95,21.17-6.23,42.3-9.85,63.37-2.04,11.91-4.19,23.81-6.44,35.68-.25,1.33.37,2.7,1.75,3.08,1.26.35,2.77-.42,3.08-1.75,6.18-26.92,12.36-53.84,18.54-80.76l5.25-22.87-4.91-.66c-2.42,22.87-5.99,45.61-10.69,68.13-1.33,6.36-2.74,12.7-4.24,19.02l4.82,1.33c5.18-30.54,11.08-60.95,17.69-91.21,1.87-8.53,3.79-17.05,5.77-25.55.73-3.13-3.93-4.43-4.82-1.33-5.31,18.52-10.61,37.05-15.92,55.57-1.51,5.27-3.02,10.54-4.53,15.81h4.82c-2.69-19.74-2.85-39.85-.6-59.64.63-5.55,1.48-11.06,2.5-16.55.25-1.33-.37-2.7-1.75-3.08-1.24-.34-2.79.42-3.08,1.75-4.03,18.94-8.06,37.88-12.09,56.82s-8.06,37.88-12.09,56.82c-2.28,10.73-4.57,21.46-6.85,32.19l4.82,1.33c4.21-20.09,8.58-40.15,13.14-60.16s9.28-39.99,14.19-59.92c2.76-11.21,5.57-22.4,8.43-33.58l-4.91-.66c-2.4,23.77-5.03,47.52-7.91,71.24-2.87,23.66-5.99,47.29-9.35,70.89-1.89,13.26-3.85,26.51-5.89,39.75-.21,1.33.34,2.69,1.75,3.08,1.21.33,2.83-.41,3.08-1.75,3.78-20.96,7.57-41.91,11.35-62.87,1.06-5.89,2.13-11.79,3.19-17.68.24-1.33-.36-2.69-1.75-3.08-1.25-.34-2.79.42-3.08,1.75-1.21,5.6-2.42,11.2-3.63,16.8h4.82c-2.75-8.02-4.62-16.33-5.46-24.78-.13-1.34-1.05-2.5-2.5-2.5-1.25,0-2.63,1.15-2.5,2.5.89,8.9,2.74,17.65,5.64,26.11.75,2.17,4.27,2.57,4.82,0,1.21-5.6,2.42-11.2,3.63-16.8l-4.82-1.33c-3.78,20.96-7.57,41.91-11.35,62.87-1.06,5.89-2.13,11.79-3.19,17.68l4.82,1.33c3.66-23.75,7.07-47.55,10.25-71.37,3.17-23.77,6.09-47.56,8.77-71.39,1.52-13.47,2.95-26.96,4.31-40.45.29-2.83-4.22-3.35-4.91-.66-5.1,19.88-10.02,39.81-14.77,59.78-4.75,19.97-9.33,39.98-13.73,60.03-2.47,11.27-4.89,22.56-7.26,33.85-.28,1.32.39,2.7,1.75,3.08,1.24.34,2.79-.42,3.08-1.75,4.03-18.94,8.06-37.88,12.09-56.82s8.06-37.88,12.09-56.82c2.28-10.73,4.57-21.46,6.85-32.19l-4.82-1.33c-3.77,20.2-5.06,40.84-3.7,61.34.39,5.86,1.01,11.69,1.8,17.5.15,1.07,1.42,1.84,2.41,1.84,1.1,0,2.11-.78,2.41-1.84l15.92-55.57,4.53-15.81-4.82-1.33c-7.02,30.17-13.33,60.5-18.91,90.96-1.57,8.59-3.09,17.19-4.55,25.8-.23,1.33.35,2.69,1.75,3.08,1.27.35,2.76-.43,3.08-1.75,5.39-22.7,9.64-45.67,12.74-68.8.88-6.55,1.67-13.11,2.36-19.68.3-2.81-4.29-3.38-4.91-.66-6.18,26.92-12.36,53.84-18.54,80.76l-5.25,22.87,4.82,1.33c4.01-21.16,7.7-42.39,11.04-63.67s6.37-42.73,9.06-64.16c1.51-12.07,2.92-24.16,4.22-36.26.3-2.79-4.35-3.41-4.91-.66-3.74,18.24-10.4,35.69-16.89,53.09s-12.83,34.57-15.91,52.73c-1.73,10.16-2.41,20.48-1.49,30.76.24,2.68,4.13,3.54,4.91.66,7.48-27.66,14.33-55.49,20.51-83.47,1.73-7.83,3.41-15.68,5.04-23.53l-4.82-1.33c-3.51,19.74-5.63,39.73-6.26,59.77-.18,5.73-.24,11.47-.18,17.2.03,2.73,4.33,3.51,4.91.66,5.35-26.41,9.65-53.02,12.91-79.77.91-7.49,1.73-14.98,2.48-22.48.12-1.22-1.04-2.32-2.17-2.46-1.33-.16-2.26.6-2.74,1.79-7.25,17.91-13.99,36.02-20.19,54.32s-11.86,36.78-16.97,55.41c-2.87,10.47-5.57,20.99-8.1,31.55l4.82,1.33c4.24-31.43,8.49-62.87,12.73-94.3,1.2-8.89,2.4-17.77,3.6-26.66.18-1.34-.32-2.68-1.75-3.08s-2.62.47-3.08,1.75c-6.36,17.64-10.28,36.12-11.69,54.81-.4,5.32-.59,10.65-.58,15.99,0,2.84,4.11,3.37,4.91.66,6.9-23.34,13.8-46.69,20.7-70.03,1.95-6.61,3.91-13.23,5.86-19.84l-4.82-1.33c-5.31,19.46-9.2,39.28-11.71,59.3-.71,5.69-1.3,11.39-1.79,17.1-.24,2.89,4.11,3.27,4.91.66,6.74-22.04,12.49-44.38,17.18-66.95,1.33-6.41,2.58-12.84,3.75-19.29.58-3.18-3.68-4.35-4.82-1.33-10.79,28.61-18.81,58.26-23.89,88.41-1.45,8.61-2.66,17.27-3.65,25.94-.28,2.44,3.64,3.45,4.66,1.26,10.92-23.5,18.92-48.32,23.63-73.8,1.33-7.18,2.39-14.4,3.22-21.65.14-1.22-1.06-2.32-2.17-2.46-1.32-.16-2.27.6-2.74,1.79-5.83,14.6-11.64,29.23-16.64,44.14-4.97,14.81-9.14,29.92-11.6,45.36-1.4,8.8-2.27,17.67-2.43,26.58-.05,2.79,4.26,3.44,4.91.66,7.38-31.31,14.76-62.61,22.14-93.92,2.06-8.76,4.13-17.52,6.19-26.28.74-3.14-3.82-4.38-4.82-1.33-7.31,22.35-13.54,45.05-18.65,68-1.43,6.45-2.78,12.91-4.04,19.39-.26,1.32.37,2.7,1.75,3.08,1.24.34,2.8-.42,3.08-1.75,6.74-32.07,13.48-64.14,20.22-96.21,1.88-8.95,3.76-17.91,5.64-26.86l-4.82-1.33c-2.56,18.87-7.32,37.34-11.85,55.81-4.5,18.32-8.82,36.77-10.51,55.6-.94,10.5-1,21.07.17,31.55.14,1.24.84,2.3,2.17,2.46,1.2.14,2.43-.56,2.74-1.79,6.58-26.08,13.14-52.3,15.67-79.14.71-7.55,1.08-15.13,1.05-22.71-.01-2.47-3.41-3.42-4.66-1.26-8.49,14.65-12.86,31.64-12.44,48.57.05,2.1.18,4.19.38,6.28.19,1.92.31,3.9.96,5.72,1.07,3.05,3.27,6.68,6.72,7.33,1.81.34,3.65-.24,4.97-1.53,1.52-1.48,2.01-3.59,2.46-5.58,1.02-4.48,1.87-9.01,2.53-13.56,1.54-10.53,2.16-21.17,1.8-31.8-.09-2.58-3.26-3.26-4.66-1.26-9.71,13.86-19.81,29.24-21.08,46.6-.34,4.73.12,9.51,1.36,14.09.55,2.06,3.51,2.47,4.57.6,5.99-10.6,11-21.75,14.97-33.26.44-1.28-.5-2.73-1.75-3.08-1.37-.38-2.63.47-3.08,1.75h0Z"/>
  <path class="cls-24" d="M2.41,119.48c3.22,0,3.22-5,0-5s-3.22,5,0,5h0Z"/>
  <path class="cls-24" d="M133.41,19.48c3.22,0,3.22-5,0-5s-3.22,5,0,5h0Z"/>
  <path class="cls-24" d="M455.41,360.48c3.22,0,3.22-5,0-5s-3.22,5,0,5h0Z"/>
  <g>
    <rect class="cls-15" x="290.91" y="9.92" width="416.5" height="610"/>
    <path class="cls-67" d="M430.54,217.09c3.89-3.09,7.46-6.65,10.7-10.69,4.72-7.16,15.32-7.92,17.69.62l-.79,3.6c-.44,2.84-1.5,5.72-3.16,8.63-.21.63-.68,1.12-.79,1.44l-1.22.29c-3.45,6.25-7.01,12.46-10.67,18.62-3.78,2.74-6.64,7-7.84,11.3-1.06,1.53-1.26,1.32-2.37,3.6-.98,1.32-1.76,2.76-2.37,4.32-.37,1.09-.34,2.13-1.58,2.88-1.41.2-.28-2.38-.32-2.25-.2,2.71-1.14,4.66-2.83,5.85-8.31,37.63,20.21,65.01,54.43,81.29l.92-.72c8.47,1.8,18.35,3.1,26.68.72,1.35-.15,2.23-.58,3.16-.72,1.86-.9,4.34-1.68,6.31-1.44,16.84-5.88,28.74-16.03,39.91-28.99,2.97-1.4,3.87-3,2.68-4.82,2.23-3.33,4.9-8.85,6.32-12.58,1.76-4.61,2.68-9.32,3.93-14.04,1.21-1.32,1.62-3.4,1.25-6.25.05-.31.45,6.15-1.25,5.53.36-6.19-.14-11.9-2.15-17.83-.61-1.8-2.53-6.47-3.38-8.07-1.95-4.01-4.06-7.84-6.31-11.51-4.54-6.14-9.01-12.13-13.41-17.98-2.41-3.77-6.51-7.71-7.1-12.23-6.05-12.71,6.2-20.4,16.03-9.05,10.06,11.26,20.44,22.08,31.14,32.45l.95.34c1.38,1.57,3.56,2.98,4.73,5.04,3.82,4.76,8.21,9.65,12.6,13.62.49,2.44,1.82,4.14,3.97,5.09.2.29.64.49.79.72v.72l.19,2.17c5.88,8.59,6.17,17.84,2.82,27.33-4.38,12.42-11.27,25.23-17.99,36.67.83-1.03,1.32-1.37,1.58,0-.43.92-.24,2.18-1.58,2.88-.68-.44-.68-1.4,0-2.88-3.59,7.82-7.01,15.49-10.25,23.02-.24.5-.38,1.29-.79,2.16-.92.13-1.05-.06-.39-.57l-6.25,12.28-1.25.52c-1.23-.69-1.6,1.66-1.58,2.88,1.36.69.69,1.83-.79,1.44-1.39.01-1.65.97-.79,2.88l.69.5c-1.43,2.4-2.18,4.87-2.27,7.41-.49,1.22.02,3.26-1.58,4.32-1.07.17-.46-2.07-.49-1.96-.43,3.32-1.07,6.85-2.67,9.87-3.44,16.68-3,35.31,3.16,51.79,1.89,2.39.91,2.17,1.58,3.6,2.99,9.06,6.42,18.08,10.28,27.06l1.55.99c1.12,2.6,2.04,5.33,3.16,7.91l-.69.45c4.29,11.3,9.55,22.41,14.86,33.36.98,5.62-.68,3.33-.02.29.03-.14.39-.22.84-.29,2.33,5.3,4.87,10.45,7.1,15.83.39,1.01.65,1.97.79,2.88,1.45,3.68,2.92,7.41,4.4,11.19,2.66,4.15,5.27,8.82,5.86,13.62.02.12-.49-2.39.78-1.79.37.79,1.03,1.7,1.58,2.88,3.14,9.04,7.09,17.92,11.83,26.62l-.49,3.56c-2.89,1.5,0,1.35,1.28.04,3.73,3.65,1.16,4.86-7.71,3.62-4.77-1.26-9.56-1.99-14.38-2.18-10.84-1.47-21.62-3.39-32.34-5.75-3.97-.67-9.18-.77-11.72-4.06-5.99-12.39-11.07-25.14-16.68-37.66-1.74-3.56-2.79-6.92-3.16-10.07l-2.33-3.34c-3.55-9.2-7.73-18.31-12.53-27.33.67-1.74.36-2.55-.92-2.42-4.59-10.2-9.43-20.38-14.53-30.54l-2.83-3.27c-.21.62-.48.6-.79,0-2.31-4.73-5.21-8.81-8.68-12.23-5.12-5.42-6.2-4.77-11.83-1.44-1.54,1.5-3.59,3.61-4.84,5.28-2.57,3.46-4.44,6.7-6.2,10.54-1.46,1.76-2.51,3.68-3.16,5.75-.27.48-.52.96-.79,1.44-.99.72-1.37,1.78-1.58,2.88-.54.96-1.05,1.94-1.58,2.88-1.28,2.86-2.86,5.5-4.73,7.91-5.17,13.49-11.33,27.18-18.14,39.56-.43,1.57-.95,3.01-1.58,4.32-7.34,15.25-14.54,30.55-21.59,45.92l-1.29.12c-1.52.9-2.57,1.86-3.16,2.88-5.35,2.12-11.09,3.51-17.23,4.17l-.92.87-12.62,2.88c-5.22,1.23-10.35,2.56-15.78,2.88l-.83-.7c-12.76,3.31-17.02,1.45-12.77-5.59,3.92-6.86,7.14-13.88,9.65-21.04.55-1.17,1.02-2.4,1.58-3.6,1.67-2.58,3.24-5.21,4.73-7.91,4.07-11.13,8.8-21.92,14.2-32.37,3.89-9.5,8.09-18.85,12.62-28.05,3.98-8.33,7.4-16.72,10.25-25.18,1.06-2.5,1.32-5.69,3.16-7.91.49.18.87.31.89.27,4.71-9.25,8.09-21.69,10.06-31.68.53-2.84,1.44-5.26,2.71-7.27-.26-6.3-.39-12.72-.39-19.28.32-3.84-.16-6.1-1.44-6.79-2.19-13.41-9.93-29.85-15.78-42.44l-3.94-7.91c-2.54-5.18-4.81-9.78-7.1-15.11l-5.52-10.79c-.45-.91-1.06-1.84-1.58-2.88-2.02-6.1-5.76-13.46-9-19.34-.59-1.06-1.25-2.02-2.04-2.96-.02-.24.04-.49,0-.72-1.52-3.15-2.54-6.61-2.37-10.07-2.93-2.77-3.07-9.81-.78-13.3.06-.1-.91,1.98-1.59,1.07.11-.67-.15-1.55,0-2.16,1.01-1.66,2.06-2.38,3.16-2.16.62.08.62.56,0,1.44.59,1.95.85,1.71.79-.72.01-.88.01-1.84,0-2.88-.91-.6-.9-1.45.02-2.56l7.87-11.82c.22-.26.56-.46.79-.72l1.43.52c2.47-3.13,4.89-6.42,7.25-9.87.8-.78,1.59-1.42,2.37-2.16,1.27-1.97,2.85-3.41,4.73-4.32,5.84-6.23,11.62-12.46,17.35-18.7.18-1.91,2.31-3.33,3.94-4.32Z"/>
    <path class="cls-67" d="M529.93,506.27c1.53.66,1.53,1.5,0,2.16-.47-.92-1.01-1.7-1.58-2.88.6-.84,1.13-.6,1.58.72Z"/>
    <path class="cls-87" d="M423.44,95.52c1.32-2.37,3.81-3.11,6.61-3.04,8.72,1.01,17.39.9,26.06.53.52.57-.38,1.59-1.12,1.79-1.57,3.04-3.67,5.91-6.31,8.63-.58.63-1.17,1.01-1.58,1.44l-4.73,7.19c-3.29,7.21-5.39,11.81,0,18.7,6.48,7.3,19.31,4.81,26.82,0,3-1.8,5.73-3.92,8.68-5.75,1.29-1.3,2.84-2.48,4.73-2.88.38-1.26,2.48-2.61,3.94-2.88,1.59-1.55,4.88-2.69,7.1-1.44,4.18,1.67,8.13,4.07,11.83,7.19,4.2,3.17,8.31,6.3,12.62,9.35,3.46,2.88,7.02,5.7,11.04,7.91,2.67,2.05,5.06,3.87,7.89,5.75,1.02.68,1.55,1.4,1.58,2.16-.78,3.81-5.17,1.56-6.56-1.05-2.24,4.58-6.37,5.85-9.59.88-.65,2.21-2.19,6.44-4.36,5.92l-.55.44c-5.56-5.28-15.02-3.68-7.34,3.15,5.35,3.24,28.98,17.3,30.41,21.54,1.13,3.34,1.15,8.3-3.36,9.23-6.58,1.35-9.47-2.04-14.43-4.88-1.11-.67-1.64-1.39-1.58-2.16q1.19-1.78,0,0c-3.82-1.3-7.87-3.99-11.04-6.47-3.39-1.64-6.65-3.8-9.77-6.47-2.89-2.03-6.01-4.12-5.63-.1,8.45,5.54,16.21,11.57,23.29,18.08,1.3.51,2.36,1.47,3.16,2.88,5.1,8.71-5.78,16.54-14.2,8.63-1.89-.99-3.21-2.19-3.94-3.6-2.19-1.37-4.29-2.81-6.31-4.32-2.13-.99-4.24-2.19-6.31-3.6-2.99-2.79-11.99-8.03-9.47-.72-1.01,7.16-7.39,3.07-7.19-3.01-7.55-2.31-7.66-1.25-.33,3.16-.9,5.09.98,8.53,5.62,10.33,3.79-4.27,6.69-.72,4.75,3.6,9.21,2.66,12.34,1.8,9.4-2.58l1.15-1.43c3.38.37,4.24,4.89,1.66,7.36-5.04,4.82-11.85.91-15.86-3.04-5.66-2.94-11-6.76-15.78-10.79-11.74-8.67-23.3-17.31-34.71-25.9-4.95-3.92-10.08-7.77-14.99-11.51-2.11-1.96-4.21-3.87-6.31-5.75-10.02-5.49-6.94-14.44-3.94-23.02,3.06-6.72,6.48-13.73,10.25-20.14,2.29-3.81,5.18-6.92,8.68-9.35Z"/>
    <path class="cls-87" d="M505.48,74.66c8.58,1.49,16.99,3.88,25.24,7.19,11.96,4,24.27,4.86,36.68,5.49,2.59,1.6,4.83,3.61,6.71,6.02,8.1,9.58,14.64,22.07,17.06,34.07.95,4.72,2.07,10.52-.49,14.84-3.04,3.15-6.39,6.5-10.25,8.63-4,4.15-8.69,6.63-14.06,7.43-5.58-2.78-10.88-6.21-15.91-10.3-13.24-9.92-37.04-29.28-51.27-35.97-6.52-4.51-13.6-3.13-21.24,4.12l-.84.2c-1.64,1.55-3.48,2.99-5.52,4.32-7.38,7.39-15,9.78-22.88,7.19-1.05-.85-1.82-1.7-2.37-2.88.23-6.03,2.56-11.63,6.96-16.81l8.03-10.53c2.08-2.37,4.08-4.96,6.31-7.19,3.15-4.67,7.82-8.3,12.62-11.51,7.22-4.86,16.71-6.73,25.24-4.32Z"/>
    <path class="cls-67" d="M468.4,254.5c1.55-.16,2.67-.94,3.36-2.35,8.99-4.55,19.85-9.4,30.23-5.85l.41,1.09c2.93-1.48,5.24-1.44,6.92.12,3.25,1.15,6.72,2.42,9.57,4.12,1.3.17,2.61.65,3.94,1.44.48.39.91.91,1.58,1.44,2.05.93,3.66,2.5,4.73,4.32,11.53,10.16,13.02,24.9,7.89,38.84-1.68,3.76-3.83,7.41-6.31,10.79-.23.27-.56.46-.79.72h-.79c-11.1,13.12-28.55,17.45-45.75,12.95-5.91-1.84-11.9-4.79-15.78-9.35-1.28-1.11-2.6-2.31-3.94-3.6-.22-.25-.57-.45-.79-.72-7.51-10.07-7.84-19.88-7.89-31.65.27-2.29.74-2.54,1.58-4.32,1.02-3.32,2.43-6.58,4.73-9.35,2.35-4.3,3.34-5.39,7.1-8.63Z"/>
    <path class="cls-87" d="M404.51,63.87c-4.52,4.82-8.73,9.86-12.62,15.11l-1.58,2.16c-.49,1.45-1.28,2.65-2.37,3.6-1.89,4.29-4.04,8.83-6.31,12.95-.14,1.9-1.23,4.15-2.37,5.75-1.77,7.33-3.15,14.82-3.94,22.3l-.98.56v5.56c0,1.82.11,3.71.98,5.39,2.28,11.66,6.52,22.99,11.83,33.81,4.16,5.56,8.37,11.07,12.62,16.54,10.4,4.89,5.65,23.58-7.86,18.63-9.19-3.37-21.27-23.19-25.27-31.58-.96-.9-1.49-2.1-1.58-3.6-14.48-28.14-12.06-61.85,1.58-89.92,1.23-2.26,2.54-4.42,3.94-6.47.54-1.45,1.33-2.89,2.37-4.32,1.85-3.05,3.95-5.93,6.31-8.63,2.52-3.48,12.3-15.89,16.21-16.5,5.14-.8,12.38.88,13.58,6.23,1.41,6.29-.39,8.19-4.55,12.42Z"/>
    <path class="cls-44" d="M633.27,104.88c2.73,2.82,2.99,8.89,2.13,12.94l1.02,2.17c.63.48.64,1,0,1.44-.49,4.5-.62,9.02-.39,13.56-1.02,4.41-1.15,7.33-.4,8.74.47.18.74.66.79,1.44.44.54.44,1.26,0,2.16-.91,6.23-2.49,12.22-4.73,17.98-1.01,3.73-2.59,7.33-4.73,10.79-3.17,6.31-6.66,12.83-11.83,17.98-1.39,2-2.97,3.92-4.73,5.75-4.83,4.53-10.7,10.1-17.79,4.35-9.05-7.34,2.45-16.37,6.92-22.54,2.55-3.52,4.78-6.84,6.92-10.59,1.08-1.26,2.13-2.22,3.16-2.88,2.55-3.15,4.15-6.8,4.81-10.94,2.38.44,3.41.11,3.09-.99-3.96.11-2.72-2.98-.79-5-.18-1.99,1.61-14.5,2.39-14.72.35-.1.75-.07,1.16,0-.45-2.13,11.38-1.78,11.9-1.44.56.37.95.81,1.11,1.44l-1.67-.63.27-9.49c-3.47-1.94-3.26-6.37-.06-8.3.14-2.07-.43-4.15-1.71-6.23,1.49-1.75,2.44-3.35,3.17-5.56-1.51-.41-1.51-1.03,0-1.44Z"/>
    <path class="cls-98" d="M619.07,67.47c1,2.08,2.27,4.06,3.94,5.75.24.35.48.94.79,1.44.99,1.25,2.31,2.97,1.58,4.32q-1.58,1.3,0,0c1.51.66,2.27,2.19,1.58,3.6q-.08,3.02,0,0c1.56.14,3.18,3.8,2.37,5.04-1.01,3.72-2.41,4.3-5.39,1.75,5.61,4.71,7.91,10.01,8.4,16.68l.94.27c0,1.37.29,3.37-.01,4.55-.15.59-1.5.57-1.58.85-.6,2.1,1.41,1.59,1.58,2.28.24.94.22,3.24.07,4.24-.19,1.29-1.29,1.02-1.56,1.59-2.47,5.29,1.24,4.63,1.53,5.7.75,2.75-.58,7.91-.02,11.01h-13.02c-1.44,2.64-2.34,7.38-2.71,10.54-.22,1.89,1.4,3.71-.03,5.52-.38.48-2.95.67-1.6,1.91.95.87,4.68-.99,2.36,5.04l-3.94-1.43c1.07,2.8-1.37,9.13-4.73,10.06.2-2.81,1.25-5.69,3.16-8.63,10.63-30.02,5.58-60.23-13.41-86.32,2.57-3.32,5.56-.02,5.3,3.32,2.87-1.35,3.18.8,2.78,3.18l.82,1.57c-1.08-2.38,1.11-4.45,3.4-5.34-1.32-2.63-1.21-5.18,2.47-5.36l-.33-1.09c-2.74-.55-2.82-2.08-.23-4.6-3.3-3.57-3.56-5.11-.8-4.63,2.57,1.91,4.43,4.75,6.31,7.19Z"/>
    <path class="cls-119" d="M600.13,46.61c2.63,1.66,5.14,4.04,7.1,6.47,1.37,1.39,5.36,5.59,5.52,7.19.04.35-1.05,1.1-.77,1.4.12.13,1.5.12,2.27,1.17s1.26,3.01,1.67,4.26c-1.22.39-2.6-.96-3.16,1.08,3.36-.74,2.88,2.79,3.15,5.04l-3.14-1.44c-1.19,3.73,1.41,3.42,1.55,3.61,1.23,1.55-1.9,1.45-3.2,2.45-5.39,4.17,3.61,4.23,4,4.75.44.59-1.05,2.44-.44,3.58.77,1.45,4.15,1.89,5.22,3.2,1.52,1.85,1.25,6.23,2.3,7.81.47.71,5.8,2.2,4.75,5.53-4.81,1.8-5.53-3.98-6.71-4.31-2.59-.73-2.52,1.99-2.77,2.15-1.91,1.22-5.58-7.37-6.06-8.49-.94-2.18-1.6-5.25-3.06-7.99s-3.6-3.17-1.91-7.25l-1.96,2.15c-3.48-2.46,1.03-6.16-5.13-5.75-.97-1.33-4-3.79-5.52-5.75-12.76-8.29-12.2-26.98,6.31-20.86Z"/>
    <path class="cls-13" d="M425.8,267.45c-1.11,13.86-2.24,20.43,4.13,34,10.17,21.68,25.93,30.11,46.35,42.25,3.76,1.19,4.81,2.15,3.16,2.88-14.78-3.9-38.6-22.58-46.29-34.39-2.71-4.16-4.02-10.75-8.93-13.44l2.37-.36c-3.29-8.53-4.98-17.8-3.87-26.89.31-2.52,1.52-4.13,2.28-6.19,1.17-.38,1.44.34.79,2.16Z"/>
    <path class="cls-84" d="M537.03,215.65c-3.44-2.36-3.01-9.6-.67-12.48,3.3-4.06,10.8-3.35,14.6-.22,11.12,12.35,23.18,23.97,34.19,36.44-.88,1.66-2.24.55-3.07-.47-7.1-8.67-16.14-16.46-24.08-24.77-2.75-2.88-5.54-8.89-9.93-9.31,2.19-2.16-4.58-3.15-6.73-2.92-.21.02-3.44,1.8-3.57,1.96-1.4,1.68-1.87,6.69-.91,8.69s3.58,2.83,2.53,5.97c-2.24-.32-.54-2.62-.78-2.86-.23-.22-1.36.13-1.58-.02Z"/>
    <path class="cls-28" d="M430.54,401.96c2.32-1.37,1.33-.54,1.55,1.09,1.22,8.94.58,17.98,1.59,26.96l-1.56-1.43c1,2.92-1.02,4.77-1.54,6.87-.31,1.24.16,2.72-.22,4.11-2.85,10.32-7.66,20.5-10.87,30.74l-1.55-.35c1.05-.96.56-2.25.77-3.25.81-3.87,2.98-8.58,4.73-12.23l1.58-3.6c3.97-16.7,8.38-31.44,5.52-48.92Z"/>
    <path class="cls-39" d="M559.12,310.61c1.93-.46,2.5,1.79,2,2.85-.84,1.78-3.71,1.88-4.72,2.95-5.15,5.45-8.53,9.02-14.31,14.31-.96.88-.84,2.35-1.66,2.96-4.63,3.47-18.7,9.35-23.92,10.74-.69-.2-.68-.44,0-.72,14.95-5.27,34.26-20.63,42.6-33.09Z"/>
    <path class="cls-48" d="M448.68,539.36c-.17,2.22-.96,4.38-2.37,6.47-.12.33-.55.82-.79,1.44-.21,1.29-.73,2.49-1.58,3.6l-4.73,10.07c-3.52,8.22-6.73,16.49-11.04,24.46-1.8,3.31-5.49,5.23-11.04,5.75-.26.04-.53-.04-.79,0l-11.83,2.16c-.44-1.88,1.03-1.46,2.35-1.78,5.23-1.27,10.75-1.31,15.8-3.26.5-1.19,1.55-2.15,3.16-2.88,3.38-4.49,5.28-11.1,7.73-16.33,3.84-8.21,7.7-16.9,11.72-25.28.63-1.31,1.43-4.73,3.43-4.43Z"/>
    <path class="cls-122" d="M609.6,268.89c1.12,2.2,2.58,6.28,3.16,8.63.41,3.59.6,7.21,0,10.79l-.79,3.6c-4.95,13.27-12.11,26.02-18.14,38.84-.44.07-1.49-.11-1.58,0,4.74-9.59,10.33-19.99,14.34-29.72,3.57-8.66,7.22-17.09,4.19-26.38-.99-3.04-5.21-7.13-3.54-10.08,1.06,1.33,1.85,2.77,2.37,4.32Z"/>
    <path class="cls-7" d="M372.16,571.73c1.4.63.61,2.48.31,3.5-.96,3.22-1.64,4.47-3.18,6.82-1.24,1.88-7.54,13.89-7.42,15.21.06.61.23,1.14.81,1.5,2.35,1.49,17.51-3.1,21.32-1.84-.73,1.41-4.05.53-5.78.86-1.29.25-1.98,1.26-2.11,1.29-3.82.82-11.64,2.25-15.25,1.47-.76-.16-1.28-1.97-1.28-2.61,0-2.29,6.22-14.15,7.71-17.33,1.35-2.89,3.62-6.15,4.88-8.86Z"/>
    <path class="cls-135" d="M518.89,250.9c.41.22.4.46,0,.72-3.17-.88-6.85-1.78-10.07-3.37-1.27-.63-.91-1.6-1-1.65-.37-.2-3.67,2.74-6.66,2.18-.82-.15.09-1.7-.91-2.23-1.45-.76-7.57-.94-9.39-.72-2.41.29-3.2,1.74-4.88,2.08s-3.32-.53-4.75-.12c-.32.09-2.77,2.51-4.38,3.24-1.31.59-4.58.9-5.12,1.42-.17.17.59,3.62-3.3,2.05,14.41-12.42,33.97-13.22,50.48-3.6Z"/>
    <path class="cls-125" d="M366.64,81.14c-12.97,28.99-15.21,60.74-1.58,89.92v1.44c-15.03-28.75-12.87-63.62,1.58-92.08.38.22.37.46,0,.72Z"/>
    <path class="cls-9" d="M529.93,506.27c1.1-.23.56-1.93.81-2.15.39-.35,2.91.87,3.82,1.05.75.15,2.21-.54,2.42-.31.13.15-.11,1.15.33,1.84.19.3,1.11.32,1.25.81.78,2.73-.44,3.23-1.56,5.23-1.51-.53-2.16-6.45-3.54-6.45-.54,0-1.97,2.25-1.81,3.1.17.93,1.99,2.26,2.52,3.44,1.51,3.37,2.69,6.61,4.23,9.79,1.12,2.31,3.31,3.71,2.56,6.68,1.43.28.5-1.21.79-1.44,1.85-1.42.98,3.64,1.03,3.86.54,2.29,2.09,5.12,2.91,7.65-.22.63-.49.62-.79,0l-2.37-2.88c-.38-.86-.54-1.59-.79-2.16-2.04-3.41-3.41-7.11-4.73-10.79-.25-.45-.53-1.04-.79-1.44l-1.58-3.6c-.34-.53-.54-1.04-.79-1.44l-1.58-3.6c-1.55-2.34-1.46-3.27-2.37-5.04,0-.72,0-1.44,0-2.16Z"/>
    <path class="cls-9" d="M512.57,472.46c5.41,3.37,3,3.24,5.73,8.08,2.43,4.32,6.27,8.04,6.11,13.5,2.51.71,1.13-1.69,1.62-2.08.54-.43,3.58.11,4.68-.07l-3.15,1.44c-.47.87,3.39.87,1.57,2.15-.32.22-2.36-.14-3.15.01,1.05,4.41,3.94,6.1,3.94,10.78-.52.11-1.07-.52-1.58-.72-.8-1.68-1.58-3.35-2.37-5.04-.24-1.28-.76-2.48-1.58-3.6-.89-1.52-.98-2.23-1.58-3.6-1.44-3.19-3.02-6.31-4.73-9.35-.16-.38-.53-.85-.79-1.44-1.94-3.27-3.52-6.62-4.73-10.07Z"/>
    <path class="cls-63" d="M366.64,174.65c3.34,6.4,17.9,27.89,24.45,30.58,9.75,4,15.41-3.58,13.25-12.08-.53-2.1-3.15-3.99-4.57-5.54-.57-.8-.57-1.28,0-1.44.44.48,1.58.95,2.35,1.8,9.65,10.63-.28,25.9-13.43,17.3-6.57-4.29-20.26-23.48-22.84-30.6.22-.63.49-.62.79,0Z"/>
    <path class="cls-2" d="M529.14,309.17c-.13.94-.66,1.9-1.58,2.88-12.02,11.6-26.52,15.53-43.39,10.79l-.79-.72,16.99.75c2.42-.15,9.79-1.27,11.41-2.55,1.04-.82.65-2.37.79-2.52.09-.09,1.49.73,2.55.59,6.28-.85,8.96-7.03,14-9.21Z"/>
    <path class="cls-108" d="M636.42,148.76v-1.44c.07-.71-.06-1.45,0-2.16.21-8.62.47-17.25.79-25.9-1.61-1.96-2.14-4.78-1.6-8.47l-3.92-15.99c-2.23-.28-4.09-5.89-2.37-7.19-.79-2.13-1.55-3.26-2.37-5.04-.54-1.17-1.05-2.41-1.58-3.6-.61-1.37-1.07-2.9-1.58-4.32.09.14,1.04.43,1.45,1.16,12.1,21.24,16.29,49.49,11.17,72.94Z"/>
    <path class="cls-6" d="M625.38,578.2l1.58,3.6c.76,2.21,1.22,2.54,2.37,4.32l1.58,3.6c1.26,2.22,4.14,7.74,2.37,10.07-2.98.87-6.14.87-9.47,0-4.89-.74-9.62-1.7-14.2-2.88.75-1.38,2.66-.42,3.81-.25,2.7.39,18.2,3.25,19.07,2.41.68-1.47-.64-2.79-.79-3.59-1.35-.05-1.62-1.25-.79-3.6-4.34-7-9.11-15.39-12-23.23-.39-1.05-1.42-2.63.17-3.38,1.96,4.25,4.63,8.43,6.31,12.95Z"/>
    <path class="cls-131" d="M583.57,486.84c4.88,11.27,10.04,22.54,14.99,33.81l-.78,3.59c.11-1.24-.12-2.18-.73-3.3-4.61-8.42-11.84-23.54-14.71-32.63-.45-1.43-1.08-3.03,1.23-1.48Z"/>
    <path class="cls-91" d="M388.73,171.77c-.2.58-.73.34-1.58-.72-5.89-10.25-10.89-22.14-11.83-33.81-1.31-3.46-1.63-8.38,0-11.51.29-8.63,1.29-14.08,3.94-22.3.22-.63.49-.62.79,0-7.71,23.91-4.11,46.68,8.68,68.34Z"/>
    <path class="cls-111" d="M563.06,428.58l1.58,7.91c.61,3.67,1.61,7.16,2.37,10.79-6.07-7.68-4.78-23.24-5.56-32.69-.11-1.3-1.4-2.29-1.45-3.61-.11-2.62,3.1-12.34,3.85-15.5.22-.63.49-.62.79,0-2.27,11.63-2.5,21.34-1.58,33.09Z"/>
    <path class="cls-106" d="M537.03,148.04c5.83,3.89,14.93,9.09,19.76,13.99,7.58,7.7-.11,17.53-10.48,13.87-3.48-1.23-4.74-3.4-6.91-4.84h.79l2.05-.44c14.1,9.47,20.4-3.5,7.31-11.13l-11.15-7.49.21-1.8c-.59-.54-1.01-1.53-1.58-2.16Z"/>
    <path class="cls-12" d="M590.67,143c-.45-.22-.44-.46,0-.72,3.19-16.74-6.72-35.06-16.57-48.92-.42-.22-.41-.46,0-.72,9.56,9.87,18.62,30.23,18.98,43.51.11,3.94-.4,4.02-2.42,6.84Z"/>
    <path class="cls-121" d="M490.49,188.32h-.79c-.76-.47-9.83-7.24-8.67-2.53.5,2.04,13.65,9.12,16.13,12.64,3.54,5.02-2.24,10.06-8.57,9.28-3.74-.46-5.75-3.4-8.35-5.01-.34-.22-.33-.46,0-.72,3.76,2.37,11.8,7.95,15.69,2.45,2.47-3.49.56-4.68-1.5-6.76-.67.3-.91.03-.79-.72-3.25-.98-5.61-2.66-7.1-5.04-1.58,1.77-7.22-2.51-5.52-4.32-4.81-6.95,7.93-3.68,9.47.72Z"/>
    <path class="cls-4" d="M378.47,560.22c-.51-.19-.51-.91,0-2.16,4.6-9.98,8.9-20.19,13.41-30.21.23-.51.49-.5.79,0-4.51,7.44-9.22,22.87-14.2,32.37Z"/>
    <path class="cls-55" d="M581.2,355.93c-4.26,8.96-8.94,18.19-12.62,27.33-1.82-1.92.73-5.67,1.58-7.91-.99-1.21-1.02-2.76.79-2.88.18-.41.54-.88.79-1.44-.05-1.15.2-3.11,1.58-2.88,1.8-3.91,3.77-8.45,6.01-12.14.44-.73,2.19-2.88,1.88-.09Z"/>
    <path class="cls-77" d="M580.41,478.93l-1.58,1.07c-2.3-3.58-3-8.17-4.48-11.73-1.75-4.21-3.89-7.72-5.37-12.36-.42-1.32-1.86-3.96-.4-5.03,4.25,9.09,7.83,18.75,11.83,28.05Z"/>
    <path class="cls-118" d="M405.29,499.79c-4.82,9.51-6.84,18.51-12.62,28.05h-.79c4.2-9.33,8.52-18.69,12.62-28.05.23-.52.49-.51.79,0Z"/>
    <path class="cls-73" d="M464.46,191.2v.72c-11.93-8.57-23.7-17.91-34.71-26.62l19.31,13.69c5.1,4.05,10.1,8.4,15.4,12.21Z"/>
    <path class="cls-69" d="M415.55,474.62c.48.99-.14,3.28-.5,4.23-2.79,7.42-6.17,13.88-9.76,20.95h-.79c3.65-8.34,7.54-16.93,11.04-25.18Z"/>
    <path class="cls-127" d="M574.1,92.65v.72c-2.32-.86-4.84-5.06-6.87-5.61-3.03-.82-12.49-.48-16.98-1.06-6.2-.81-13.97-2.4-19.54-4.84h.79c7.01,1.54,14.68,3.28,21.78,4.23,3.87.52,11.61.11,14.74.95,1.57.42,4.8,4.29,6.08,5.61Z"/>
    <path class="cls-47" d="M518.1,155.95c.58-.09,1.17-.15,1.74-.12,3.17.18,16.47,9.58,17.98,13.07.03.54-.5.54-1.58,0-7.75-5.07-15.74-9.88-23.63-14.78-6.07-1.44-5.55,2.08-2.4,5.43-2.22-1.34-4.34-1.19-3-5.24,1.52-4.59,8.37.2,10.89,1.65Z"/>
    <path class="cls-35" d="M396.62,322.84c-2.32-4.61-10.73-18.34-11.04-22.3,2.09.06,3.64,3.56,4.37,5.01,1.1,2.22,1.44,4.52,2.41,6.44,1.42,2.8,6.95,7.26,4.27,10.85Z"/>
    <path class="cls-55" d="M592.25,333.63c-1.84,7.05-7.14,13.63-10.25,20.14-1.56-.89-.1-3.23.41-4.31,3-6.27,6.77-12.49,9.84-18.71-.23.28.19,2.16,0,2.88Z"/>
    <path class="cls-123" d="M434.48,250.9c-1.9-1.84,3.78-9.47,5.15-10.81.65-.64,1.97-.03,2.37-.64.28-.44-.36-1.65.14-2.7,2.09-4.46,6.31-8.96,8.91-12.96.86-1.33.44-3.65,1.98-4.53,1.69-.97.52,1.44,1.17,1.43-2.82,8.53-14.18,22.17-19.72,30.21Z"/>
    <path class="cls-41" d="M454.99,219.25c1.4-4.23.27-3.9,3.16-8.63l.79-3.6c-1.14-4.17-7.68-5.41-11.69-5.62l-13.91,15.01c-.61.88-2.47.48-2.8.68,5.44-5.73,16.39-23.3,26.45-15.13,5.5,4.46,1.65,12.8-2,17.29Z"/>
    <path class="cls-3" d="M462.88,308.45c-5.93-7.41-7.37-9.99-7.89-19.42-.77-2.83-.74-5.81,0-8.63.05-1.18-.13-2.45,0-3.6,1.96,4.41,0,9.95.97,14.58.31,1.5,2.28,7.29,2.93,8.84,1.11,2.64,4.1,5.07,3.99,8.23Z"/>
    <path class="cls-6" d="M608.02,541.51l1.58,3.6c.51,1.61.93,2.23,1.58,3.6.19,1.1.62,2.15,1.58,2.88,1.7,3.58,3.08,7.26,4.73,10.79l-.78,1.79c-1.1-2.92-2.67-6.42-4.13-9.18-2.99-5.65-4.81-8.81-6.14-15.63.22-.62.49-.61.79,0,.21.53.64,1.68.79,2.16Z"/>
    <path class="cls-3" d="M507.05,346.57c-.82,1.31-2.16,1.24-3.56,1.43-6.67.94-17.44.31-24.05-1.43.45-1.43-1.69-2.01-3.16-2.88,10.64,3.42,19.6,4.09,30.76,2.88Z"/>
    <path class="cls-64" d="M384.79,271.04c.58.71.14,1.91-.79,2.16-.92.98-1.55,2.22-3.16,2.16,1.93-7.64,6.85-12.81,11.83-18.7-1,5.25-5.91,8.99-7.89,14.39Z"/>
    <path class="cls-89" d="M580.41,150.91c.37.22.36.46,0,.72-4.05,2.88-8.97,7.93-14.54,7.17-4.19-.57-11.96-8.16-15.44-10.76,5.76,1.5,13,11.66,18.89,9.69,1.41-.47,9.43-5.62,11.08-6.81Z"/>
    <path class="cls-25" d="M510.21,176.81c.33.22.32.46,0,.72-.31-.2-1.22-.22-1.97-.7-2.63-1.68-8.97-7-11.18-7.82-1.05-.38-2.19-.46-1.84.95,7.65,5.71,17.96,11.65,24.45,18.35.27.99-.26.99-1.58,0-7.03-6.29-16.45-11.54-23.7-17.77-1.16-1.69-1.12-4.24,1.67-3.51,2.51.65,11.27,7.87,14.14,9.78Z"/>
    <path class="cls-105" d="M468.4,497.64c-.69,5.12-11.15,25.9-14.06,32.14-1.12,2.4-2.52,5.27-4.08,7.43-1.03-.45-.64-1.39,0-2.16,1.52-5.41,5.04-11.85,7.43-17.35,3.06-7.06,6.7-14.84,10.72-22.22.49.36.49,1.07,0,2.16Z"/>
    <path class="cls-19" d="M600.13,45.89c.36.22.35.46,0,.72-8.25-3.84-17.85,2.68-14.12,11.08.73,1.64,6.12,7.6,7.81,9.78-2.35-2.2-6.95-5.99-8.33-8.59-4.86-9.21,5.54-17.91,14.64-12.99Z"/>
    <path class="cls-65" d="M423.44,94.8c.73-.54.99-1.73,2.56-2.33,4.07-1.55,7.46.14,11.21.21,6.71.12,13.45-.16,20.15-.02.35.24-1.36,1.78-1.58,2.15-.24.38-.5.38-.79,0,1.39-1.91.78-1.4-1.18-1.45-2.97-.07-5.41.79-7.85.75-5.56-.07-12.35-1.5-18.22-.79-2.02.24-2.79,1.09-4.3,2.2-.36-.22-.35-.46,0-.72Z"/>
    <path class="cls-14" d="M609.6,596.9c4.7.96,9.69,1.24,14.2,2.88h-.79c-15.37-2.16-30.74-4.93-45.75-8.63,11.1,1.87,21.31,3.5,32.34,5.75Z"/>
    <path class="cls-99" d="M544.13,227.88c3.41.46,2.94,3.46,4.17,5.15,3.14,4.29,6.21,8.37,9.24,12.84.56,1.17.47,1.39-.79.72-4.06-6.26-8.58-12.39-12.62-18.7Z"/>
    <path class="cls-91" d="M531.51,81.86c-.25-.05-.54.06-.79,0-8.25-1.87-17.56-5.92-25.24-7.19-.69-.2-.68-.44,0-.72,8.71,1.2,17.76,5.08,26.03,7.91Z"/>
    <path class="cls-97" d="M469.19,130.77c-.26.16-.55.92-1.28,1.32-6.36,3.48-14.86,5.2-21.9,2.2-3.28-1.4-2.3-1.8-3.64-3.52,8.61,6.71,17.67,4.04,26.82,0Z"/>
    <path class="cls-114" d="M408.45,148.04v.72c-6.93-6.05-8.16-5.32-7-15.38.43-3.76,1.68-5.33,3.06-8.36-.33,5.16-3.26,10.17-2.32,15.43.4,2.27,4.34,5.83,6.26,7.59Z"/>
    <path class="cls-134" d="M471.56,120.7c-5.6,4.63-15.01,13.58-22.88,7.19,1.73.06,3.37.78,5.11.76,7.42-.06,12.13-4.55,17.76-7.96Z"/>
    <path class="cls-10" d="M499.16,112.07c-1.32-.62-7.03-2.9-8.09-2.76-2.74.37-11.13,6.05-13.99,7.79-.37-.22-.36-.46,0-.72,6.11-4.4,15.27-12.66,22.09-4.32Z"/>
    <path class="cls-52" d="M507.05,199.83c4.08,1.92,7.68,4.49,12.12,1.34,3.25-2.32,3.45-6.71,2.08-9.97-.46-.21-.45-.46,0-.72.87,1.3,1.91.9,1.92,3.68.04,7.75-6.54,12.37-14.04,7.71-1.19-.74-1.5-1.6-2.08-2.04Z"/>
    <path class="cls-64" d="M402.14,246.59c1.81,1.84-2.19,4.27-3.46,5.84-1.13,1.4-1.12,3.43-3.06,4.46-1.42.76-2.5,1.06-2.16-.95,2.85-3.3,5.54-6.27,8.68-9.35Z"/>
    <path class="cls-21" d="M426.59,221.41c-.03.35,1.06,1.12.79,1.42-.1.11-1.91.36-2.83,1.38s-.87,2.41-1.23,2.82c-.1.11-1.22-.59-2.27.42-1.46,1.4-.86,3.68-2.6,5.22-.87.77-2.46,1.05-3.09,1.66-1.88,1.84-3.28,5.1-6.12,5.78.2-.93.73-1.88,1.58-2.88,5.11-5.35,9.79-11.24,15.78-15.83Z"/>
    <path class="cls-53" d="M626.95,177.53c-3.13,6.03-6.71,12.44-11.83,17.26v-.72c4.5-5.6,7.64-12.2,11.83-17.98.35.21.35.69,0,1.44Z"/>
    <path class="cls-27" d="M505.48,73.94v.72c-10.07-1.67-16.48-.02-25.24,4.32,7.54-6.17,15.57-6.37,25.24-5.04Z"/>
    <path class="cls-49" d="M593.04,247.3c4.99,4.91,9.47,10.21,13.41,15.83-6.34.03-2.92-3.93-4.06-4.97-.24-.22-1.56.16-2.03-.22-.44-.36-.28-1.63-1.03-2.32-5.94-5.48-5.84-4.86-9.45-11.19h.79l2.37,2.88Z"/>
    <path class="cls-72" d="M491.28,458.79c-3.76,5.22-7.29,10.61-11.04,15.83,1.36-3.1,1.31-5.99,3.94-9.53,1.78-2.4,3.23-2.54,4.74-3.44.07-.04-.68-.88-.53-1.25.33-.76,2.44-1.35,2.89-1.61Z"/>
    <path class="cls-74" d="M503.11,460.23c3.68.03,1.66.93,2.59,1.91,5,5.3,3.88,5.11,6.09,10.32-2.15-1.09-6.45-9.87-8.68-12.23Z"/>
    <path class="cls-29" d="M416.34,591.15l-24.45,5.04c4.35-1.03,8.16-2.01,12.62-2.88,3.96-.77,7.78-1.51,11.83-2.16Z"/>
    <path class="cls-117" d="M480.23,201.99v.72c-5.65-3.49-10.52-7.02-15.78-10.79v-.72c4.91,3.52,10.54,7.49,15.78,10.79Z"/>
    <path class="cls-64" d="M383.21,289.75c.37,1.7.11,2.66-.79,2.88-2.18-6.62-2.78-8.03-1.58-15.11l1.59-1.07c-1.71,5.43-.68,8.54.78,13.3Z"/>
    <path class="cls-46" d="M446.31,125.02c-2.34-5.01,4.6-14.5,7.87-19.08,2.2-3.07,4.65-5.45,7.12-8.26-5.17,8.96-14.11,16.74-14.99,27.33Z"/>
    <path class="cls-57" d="M388.73,171.77c3.38,5.73,6.53,9.47,11.04,14.39v1.44c-5.46-5.97-8.57-9.5-12.62-16.54l1.58.72Z"/>
    <path class="cls-112" d="M404.51,63.87c-3.63,5.34-8.69,9.97-12.62,15.11,4.15-7.04,7.38-9.78,12.62-15.11Z"/>
    <path class="cls-31" d="M569.37,283.27c.03-.26.81-1.06.85-2.43.12-3.97.24-8.12-.84-11.95l1.58,2.88,1.58-.36v3.24s-1.58-.73-1.58-.73v12.23c-2.11.41-1.76-.82-1.58-2.15.03-.24-.03-.48,0-.72Z"/>
    <path class="cls-100" d="M483.39,322.12c.31.17.55.47.79.72-7.99-2.24-10.69-4.03-16.57-9.35v-.72c4.27,4.42,10.49,6.37,15.78,9.35Z"/>
    <path class="cls-133" d="M636.42,148.76c-.72,5.86-1.96,10.9-3.94,16.54-.22.63-.49.62-.79,0,1.9-5.6,2.6-12.36,4.73-17.98-.05.47.06.97,0,1.44Z"/>
    <path class="cls-115" d="M480.23,78.98c-4.07,3.33-8.92,7.8-12.62,11.51,1.54-4.64,8.15-9.3,12.62-11.51Z"/>
    <path class="cls-58" d="M521.25,183.28c.52.38,1.02,1.63,1.58,2.16-4.54-2.6-8.23-5.15-12.62-7.91v-.72c3.12,2.07,7.9,4.2,11.04,6.47Z"/>
    <path class="cls-5" d="M567,387.58c-.25,3.44-1.87,5.36-2.37,7.91h-.79c.84-3.52,1.31-7.28,2.38-10.79,1.32-.19.83,2.14.78,2.87Z"/>
    <path class="cls-35" d="M385.57,299.82c-2.06-1.84-2.37-4.8-3.16-7.19l.79-2.88c1.13,3.67,1.74,6.83,2.37,10.07Z"/>
    <path class="cls-92" d="M505.48,125.02l-11.83-7.19c-.69-.2-.68-.44,0-.72,4.91,1.23,8.23,5.2,11.83,7.91Z"/>
    <path class="cls-86" d="M545.71,539.36c.65,2.03.73,3.42,1.21,5.03.78,2.62,3.71,2.81,1.95,5.05-1.47-3.27-3.23-6.67-4.73-10.07.22-.63.49-.62.79,0h.79Z"/>
    <path class="cls-54" d="M388.73,84.73c-2.28,4.29-4.5,8.45-6.31,12.95-.23.55-.49.54-.79,0,2.08-5.14,3.27-8.11,6.31-12.95.24-.37.5-.36.79,0Z"/>
    <path class="cls-11" d="M428.17,261.69c-.29,1.78-1.17,4.28-2.37,5.75.03-.33-.88-1.51-.79-2.16.79-2.16,1.68-4.28,2.38-6.47,1.28-.22.88,2.26.78,2.87Z"/>
    <path class="cls-34" d="M609.6,168.18c-.55,1.06-1.88,3.4-3.16,2.88,2.17-3.79,3.39-8.08,6.31-11.51-.97,2.74-1.82,6.05-3.16,8.63Z"/>
    <path class="cls-60" d="M529.14,142.28c-4.15-1.45-8.04-4.95-11.04-7.91,3.78,2.68,7.3,5.05,11.04,7.91Z"/>
    <path class="cls-22" d="M423.44,94.8v.72c-3.56,2.64-5.47,6.47-8.68,9.35,3.12-5.3,3.49-6.28,8.68-10.07Z"/>
    <path class="cls-38" d="M632.48,165.3c-1.47,4.2-3.46,8.25-5.52,12.23.05-.47-.08-.99,0-1.44.69-3.78,3.54-7.29,4.73-10.79h.79Z"/>
    <path class="cls-23" d="M378.47,560.22c-1.13,2.15-1.67,3.82-2.61,5.87-.5,1.08-.25,2.45-2.12,2.05,1.54-3.33,3.21-6.76,4.73-10.07v2.16Z"/>
    <path class="cls-96" d="M448.68,103.44l6.31-8.63h.79c-2.53,4.32-3.97,5.23-7.1,8.63Z"/>
    <path class="cls-29" d="M417.13,591.15c3.99-2.35,8.53-1.37,11.04-5.75-.19.35.09,1.35-.42,2.11-2.03,3.03-7.16,3.11-10.62,3.65Z"/>
    <path class="cls-94" d="M517.31,482.53c-2.51-3.03-4.03-6.56-5.52-10.07.2.1.61-.11.79,0,2.28,3.11,3.28,6.79,4.73,10.07Z"/>
    <path class="cls-110" d="M557.54,245.87c1.56,2.3,2.96,4.87,5.1,6.52l1.21,4.99c-1.53-2.92-5.09-7.68-7.1-10.79l.79-.72Z"/>
    <path class="cls-70" d="M372.95,70.35v-.72c1.84-2.73,3.18-6.25,6.31-7.91-2.03,2.8-3.35,6.42-6.31,8.63Z"/>
    <path class="cls-43" d="M607.23,53.08c-2.04-2.06-5.51-3.84-7.1-6.47v-.72c2.38,1.28,6.17,4.76,7.1,7.19Z"/>
    <path class="cls-37" d="M456.57,272.48c.44-3.19,1.94-7.21,4.73-9.35-1.61,2.94-3.31,6.33-4.73,9.35Z"/>
    <path class="cls-50" d="M590.67,143c-2.34,3.27-6.68,6.09-10.25,8.63v-.72c3.4-2.44,6.35-6.52,10.25-8.63v.72Z"/>
    <path class="cls-56" d="M633.27,599.78c-2.13,2.8-7.38.4-10.25,0h10.25Z"/>
    <path class="cls-76" d="M408.45,148.04c1.91,1.76,5.84,3.67,6.31,5.75-2.53-1.93-4.1-3.11-6.31-5.04v-.72Z"/>
    <path class="cls-20" d="M442.37,112.07c1.61-3.53,1.9-4.24,4.73-7.19-.78,2.5-2.63,5.55-4.73,7.19Z"/>
    <path class="cls-102" d="M370.59,74.66c-1.2,2.24-1.75,5.19-3.94,6.47v-.72c1.13-2.22,1.88-3.61,3.16-5.75.24-.39.5-.38.79,0Z"/>
    <path class="cls-69" d="M612.76,288.31c.38-3.42-.27-7.3,0-10.79,1.13,4.67.89,6.17,0,10.79Z"/>
    <path class="cls-33" d="M493.64,117.1v.72c-2.18-.19-5.18.51-7.1,1.44-.51-.21-.5-.45,0-.72,3.25-1.6,3.18-2.42,7.1-1.44Z"/>
    <path class="cls-40" d="M496.8,191.92c.38.22.37.46,0,.72-1.98-1.31-4.88-2.93-7.1-4.32h.79c2.57.45,4.25,2.36,6.31,3.6Z"/>
    <path class="cls-81" d="M530.72,308.45l6.31-10.79c-1.87,5.07-2.76,6.53-6.31,10.79Z"/>
    <path class="cls-42" d="M615.12,194.79c-.68,2.5-3.1,3.51-4.73,5.04.22-2.43,3.49-4.2,4.73-5.75v.72Z"/>
    <path class="cls-94" d="M522.83,493.32c-2.58-2.66-3.35-6.17-4.73-9.35,3.05,2.18,3.48,6.5,4.73,9.35Z"/>
    <path class="cls-80" d="M382.42,97.68c-.76,1.89-1.75,3.86-2.37,5.75h-.79c.72-2.22,1.56-3.77,2.37-5.75h.79Z"/>
    <path class="cls-62" d="M477.08,116.39v.72c-1.94,1.18-3.52,2.39-5.52,3.6,2.2-1.82,3.22-2.66,5.52-4.32Z"/>
    <path class="cls-1" d="M486.54,119.26c-.57.28-2.7,2.15-3.94,2.88-.79.4-1.31.4-1.58,0,1.94-1.5,3.23-2.47,5.52-3.6v.72Z"/>
    <path class="cls-37" d="M454.99,289.03c-1.31-1.92-1.34-6.57,0-8.63-.13,2.75-.15,5.89,0,8.63Z"/>
    <path class="cls-3" d="M463.67,309.17h2.37c-.93,1.36.63,2.62,1.58,3.6v.72c-2.17-1.97-2.34-2.43-3.94-4.32Z"/>
    <path class="cls-82" d="M516.52,343.7v.72c-2.47.66-3.62,1.02-6.31,1.44,1.39-1.92,4.54-1.54,6.31-2.16Z"/>
    <path class="cls-68" d="M468.4,497.64c.09-.7-.06-1.45,0-2.16,1.45-2.65,3.26-5.29,4.73-7.91l-4.73,10.07Z"/>
    <path class="cls-129" d="M450.26,537.2c-.88,2.92-1.82,6.13-3.94,8.63.78-2.11,1.65-4.36,2.37-6.47.41-1.21-.43-3.37,1.58-4.32-.17.6.18,1.57,0,2.16Z"/>
    <path class="cls-107" d="M439.21,560.94c1.66-3.87,2.3-6.19,4.73-10.07-1.31,3.3-2.06,7.23-4.73,10.07Z"/>
    <path class="cls-93" d="M623.01,73.22c-1.96-1.3-3.5-3.62-3.94-5.75,1.77,2.3,2.48,3.57,3.94,5.75Z"/>
    <path class="cls-113" d="M477.08,480.37c-.44-2.77,2-4.15,3.16-5.75-1.08,2.45-2,3.65-3.16,5.75Z"/>
    <path class="cls-109" d="M503.11,196.23c1.25.83,2.86,2.78,3.94,3.6-4.25-2-5.33-3.54-8.68-5.75,1.45-.33,3.03.39,4.73,2.16Z"/>
    <path class="cls-124" d="M529.14,258.81c-1.49-1.31-3.41-3.27-4.73-4.32,2.21.31,4.4,2.31,4.73,4.32Z"/>
    <path class="cls-66" d="M372.95,70.35c.1,1.88-1.71,3.09-2.37,4.32h-.79c1.05-1.78,1.99-3.31,3.16-5.04v.72Z"/>
    <path class="cls-21" d="M541.76,534.32c-2.44-2.97-4.07-7.17-4.73-10.79,1.98,3.61,3.16,7.18,4.73,10.79Z"/>
    <path class="cls-79" d="M409.24,240.11c-1.51,1.87-3.18,2.84-4.73,4.32.94-2.8,4.22-5.01,6.31-7.19-.12,1.15-.87,2-1.58,2.88Z"/>
    <path class="cls-61" d="M414.76,359.52l-3.94-7.91c1.21,2.45,2.7,5.23,3.94,7.91Z"/>
    <path class="cls-130" d="M482.6,122.14c-1.53.9-3.23,1.94-4.73,2.88.6-1.42,2-1.99,3.16-2.88h1.58Z"/>
    <path class="cls-69" d="M609.6,268.89c-.61-1.2-2.49-2.45-2.37-4.32v-.72c1.03,1.57,2.67,2.78,2.37,5.04Z"/>
    <path class="cls-101" d="M403.72,336.5c-2.97-3.02-3.76-7.26-5.52-10.79,2.89,2.95,4.04,7.34,5.52,10.79Z"/>
    <path class="cls-8" d="M537.82,168.9c1.89-1.38,3.62.37,2.37,2.16h-.79c-1.06-.7-2.13-1.48-3.16-2.16h1.58Z"/>
    <path class="cls-59" d="M429.75,258.81c.51-1.5.03-3.49,2.37-4.32-.68,1.4-.7,3.2-2.37,4.32Z"/>
    <path class="cls-124" d="M522.83,253.06c-1.5,0-2.71-1.1-3.94-1.44v-.72c1.48.86,1.86.46,3.94,2.16Z"/>
    <path class="cls-95" d="M390.31,81.86c-.51.9-1.1,1.97-1.58,2.88h-.79c.82-1.3,1.43-2.32,2.37-3.6v.72Z"/>
    <path class="cls-30" d="M519.67,188.32c.54.56,1.13,1.49,1.58,2.16v.72c-1.62-.48-2.2-2.02-3.16-2.88h1.58Z"/>
    <path class="cls-26" d="M366.64,174.65h-.79c-.26-.73-.67-1.29-.79-2.16-.06-.47.04-.97,0-1.44.51,1.09,1.19,2.86,1.58,3.6Z"/>
    <path class="cls-67" d="M544.92,539.36h-.79c-.32-.72-1.04-1.66-1.58-2.88,1.37.55,2.31,1.46,2.37,2.88Z"/>
    <path class="cls-116" d="M564.64,436.49c-1.62-2.28-1.38-5.35-1.58-7.91,1.48,2.21,1.17,5.46,1.58,7.91Z"/>
    <path class="cls-51" d="M630.9,589.71c-.56-1-2.06-1.79-1.58-3.6.7,1.09,1.99,1.77,1.58,3.6Z"/>
    <path class="cls-67" d="M423.44,454.47l1.58-3.6c-.66,2.79-.88,2.14-1.58,3.6Z"/>
    <path class="cls-21" d="M536.24,522.09c-.69-1.08-2.01-1.77-1.58-3.6.71,1.09,1.98,1.78,1.58,3.6Z"/>
    <path class="cls-126" d="M593.04,247.3c-.79-.78-2.54-1.05-2.37-2.88,1.41.51,2.22,1.49,2.37,2.88Z"/>
    <path class="cls-45" d="M607.23,539.36h-.79c-.11-.56-1.39-1.69-.79-2.88.28.67,1.03,1.49,1.58,2.88Z"/>
    <path class="cls-67" d="M525.99,500.51c-.51-1.09-1.66-2.1-1.58-3.6.38.65,2.5,1.33,1.58,3.6Z"/>
    <path class="cls-21" d="M533.87,517.06c-.7-1.09-2.01-1.77-1.58-3.6.73,1.1,1.97,1.77,1.58,3.6Z"/>
    <path class="cls-45" d="M609.6,545.11c-1.7-.82-1.21-2.42-1.58-3.6,1.66.9,1.2,2.4,1.58,3.6Z"/>
    <path class="cls-129" d="M443.95,550.87c.51-1.29,1.24-2.7,1.58-3.6.43,1.82-.91,2.53-1.58,3.6Z"/>
    <path class="cls-103" d="M527.56,312.05l1.58-2.88h.79c-.8.9-.92,1.49-2.37,2.88Z"/>
    <path class="cls-51" d="M626.95,581.8c-1.71-.87-1.18-2.52-1.58-3.6,1.68.89,1.19,2.45,1.58,3.6Z"/>
    <path class="cls-32" d="M503.11,196.23c-.93-.62-3.52-1.71-4.73-2.16-.29-.19-.74-.88-1.58-1.44v-.72c1.94,1.17,5.09,2.01,6.31,4.32Z"/>
    <path class="cls-104" d="M611.97,291.9c-.74-1.35.72-2.99.79-3.6-.3,1.54-.12,1.8-.79,3.6Z"/>
    <path class="cls-45" d="M612.76,551.59c-1.45-.37-1.71-1.62-1.58-2.88.37.78,1.04,1.75,1.58,2.88Z"/>
    <path class="cls-88" d="M390.31,81.86v-.72c.55-.75,1-1.4,1.58-2.16-.51.87-1.05,1.94-1.58,2.88Z"/>
    <path class="cls-68" d="M474.71,484.69c-.14-1.25.13-2.5,1.58-2.88-.53.95-1.04,1.92-1.58,2.88Z"/>
    <path class="cls-132" d="M601.71,588.28c1.61,1.25-4.74,3.64-5.98,3.59-1.69-.06-1.41-1.68-2.52-2.14-2.14-.88-7.5.34-6.49-2.54,1.1-3.16,12.3,1.97,15,1.08Z"/>
    <path class="cls-9" d="M631.69,595.47c1.05,3.1-3.08,2.55-4.74,1.8-.79-.35-3.66-4.35-3.8-5.19-.25-1.53.6-5.57,2.43-2.89,1.13,1.65,1.94,4.43,2.97,6.28l2.36-3.59c1.16,1.86.49,2.04.79,3.6Z"/>
    <path class="cls-75" d="M563.84,226.43c-3.47,1.95-3.71,3.01-6.73-.67-4.42-5.39,5.46-3.44,6.73.67Z"/>
    <path class="cls-90" d="M411.6,240.83c1.88,1.68-2.43,6.17-5.51,5.03-.4-1.98,1.93-2.16,2.95-3.11.14-.13.58-3.7,2.56-1.92Z"/>
    <path class="cls-16" d="M607.48,272.97c.37.48,1.4.33,1.79,1.59.52,1.68.35,3.41.33,5.12-2.66-1.38-2.76-5.1-3.17-7.55,1.02-2.66.52.15,1.06.84Z"/>
    <path class="cls-16" d="M413.18,501.24c1.17,1.01-1.84,5.43-3.94,3.59-1.65-1.45,2.15-5.14,3.94-3.59Z"/>
    <path class="cls-83" d="M570.95,372.47c-.39.9-.44,1.96-.79,2.88-3.26-1.23-.99-6.27.79-2.88Z"/>
    <path class="cls-71" d="M425.8,585.39c-1.19,1.58-.19,1.74-3.16,2.88-1.78-1.81,1.38-2.59,3.16-2.88Z"/>
    <path class="cls-17" d="M384.79,273.92c.03.83,2.35,3.33-.78,4.32.03-1.19-.08-2.41,0-3.6.1-.48.17-.79.79-.72Z"/>
    <path class="cls-83" d="M573.31,368.15c-.47,1.03-1.19,2.02-1.58,2.88l-.6-.42.61-3.17h1.17s.4.72.4.72Z"/>
    <rect class="cls-18" x="390.31" y="297.66" width="1.57" height="2.15"/>
    <path class="cls-128" d="M384.79,273.92l-.79.72c.03-.47-.08-1,0-1.44s.57-1.55.79-2.16c1.76.48-.02,2.34,0,2.88Z"/>
    <path class="cls-36" d="M458.15,210.62c.05-1.15-.49-2.98.79-3.6.43,1.59-.06,2.39-.79,3.6Z"/>
    <path class="cls-85" d="M518.1,155.95c2.26-1.8-1.81-1.48-.78-2.15.57-.38,2.07-.21,2.76-1.44,1.35-2.4-.26-7.13,4.77-2.18.84.83,1.05,2.1,1.16,2.17.39.27,3.49-2.37,4.72-2.17-1.25-4.62-2.97-2.41-6.48-3.75-4.12-1.58-.07-5.86,1.57-4.66.6.44,1.62,2.42,2.89,3.43s2.63,1.11,3.32,1.64c1.93,1.47,2.49,5.35,6.58,3.36,5.83,5.4,24.17,12.41,18.83,21.85-3.85,6.82-12.63,2.1-17.25-.99-.52-.34-1.21-1.38-2.37-2.16-6.31-4.23-13.15-9.16-19.72-12.95Z"/>
    <path class="cls-119" d="M494.43,197.67c3.11,8.4.29,7.35-6.91,5.95-.95-.19-1.99.37-3.12,0-4.55-1.53.03-4.53-1.81-5.93-1.6-1.22-1.77,2.44-3.41,2.08-.7-.16-6.2-3.87-6.44-4.24-.95-1.44-.02-3.24-.38-4.58-.19-.68-1.53-.41-1.58-.47-.38-.46,1.88-1.61,1.56-2.13-.12-.19-3.61-1.9-4.13-2.18-.92-.51-.69-2.25-3.74-1.42-.79.61,5.53,6.62,1.97,6.46-.21,0-3.12-2.12-3.3-2.3-.2-.19.52-1.16-.19-1.65-.31-.22-1.82.11-3.15-.7-4.81-2.94,3.59-2.37,3.85-2.6.29-.26-.18-1.8.08-2.03.42-.38,9.94.94,11.77.69-.42,1.51.47,6.74,2,7.18,3.34.97.65-2.82,3.55-2.17.52.75,4.3,3.38,5.52,4.32,1,2.44,4.6,4.12,7.1,5.04.26.23.55.47.79.72Z"/>
    <path class="cls-119" d="M521.25,183.28c-.08-.03-.86-1.37-.79-1.43l1.57-.36c-1.14-2.26-2.49-2.24-4.15-3.24-.56-.34-.49-1.26-1.1-1.41-1.95-.47-2.97,2.18-4.99-1.84l7.1-2.1.78-3.27c-2.34-.69-.94,2.34-3.54,1.43-2-.7-.26-2.77-.4-2.87-.2-.14-4.26-.14-5,0s-.19,1.97-2.51,1.44c-.18-.04-1.11-2.76-2.75-1.45-.91.72,1.71,4.36-5.52-.01,1.05-2.38,7.19-1.17,8.32-2.83,1.86-2.77-2.99-2.57-2.8-5.07,4.98-1.28,2.08,0,3.93,1.79.29.28,6.04,4.28,6.71,4.69,2.53,1.52,10.71,4.25,12.28,6.05.45.52.13,1.33.48,1.87.32.49,1.65.5,1.86,1.22.37,1.24-.26,3.15,0,4.53,2.04-2.3,4.46,4.78,1.97,3.59-.8-.39-1.57-2.9-3.55-2.87.61.93.05,2.71.2,3.22.13.43.87.37,1.05.65.5.8.26,1.82.33,1.89.71.79,3.26-2.67,4.56-2.36-.44-3.27,3.64-.82,1.74-3.39.34-.21,3.02.65,3.12.76.27.31-1.13,5.43-2.31,6.08-.37.2-6.08.9-6.9.89-2.73-.02-1.85-2.76-2.53-3.1-1.77-.89-5.17,1.99-3.21-3.2-.75.2-3.51.87-3.94.72Z"/>
    <path class="cls-120" d="M375.32,125.74c-.12,3.61-.29,7.97,0,11.51-2.61-1.75-1.7-7.62-1.58-10.44.08-1.77-.56-2.35,1.58-1.07Z"/>
    <path class="cls-119" d="M633.27,106.31l-1.57,2.15c.25-3.56-2.46-2.96-5.53-2.88-.68-2.66,2.54-.8,3.83-1.54.45-.26,1.05-2.99.93-3.72-.06-.38-1.6-.8-2.17-1.82-.63-1.11-.57-2.62-1.06-3.24-1.79-2.29-9.79-7.22-2.33-7.66l1.58,2.87.02-2.87h2.36c1.08,2.9,1.86,3.7,2.37,7.19,1.3,3.6,1.83,6.95,1.58,10.07,0,.48,0,.96,0,1.44Z"/>
    <path class="cls-98" d="M637.21,119.26c-.09.58-.36.82-.79.72-4.88-.91-1.35-4.62-1.16-6.81.23-2.6-1.46-5.91-1.99-8.3-.88-3.97-1.03-6.25-1.58-10.07,3.04,7.25,4.96,16.7,5.52,24.46Z"/>
    <path class="cls-98" d="M635.63,143.72c-.18-.14-1.53.36-1.61-.41-.15-1.43,1.49-6.5,1.6-8.58.24-4.31-.82-9.3.8-13.3.83,7.22.93,15.19-.79,22.3Z"/>
    <path class="cls-78" d="M636.42,145.16c-.55-.26-.63-1.32-.79-1.44,1.42-7.34.55-14.87.79-22.3.02-.47-.07-.98,0-1.44.05-.33.43-.62.79-.72.61,8.44-.11,17.5-.79,25.9Z"/>
    <path class="cls-119" d="M620.64,77.54c-2.38,7.02-3.27,7.28-7.1.72,1.72-.28,2.5,1.9,4.31,1.43,1.23-.32.55-2.84,2.79-2.15Z"/>
    <path class="cls-119" d="M622.22,81.86c-.44,1.52,1.36,5.63-1.57,5.03.44-1.52-1.36-5.63,1.57-5.03Z"/>
    <path class="cls-119" d="M625.38,78.98c.25.65-.16,2.04,0,2.88-5.11-.97-.75-4.84,0-2.88Z"/>
    <polygon class="cls-119" points="626.95 82.58 627.74 85.09 625.38 86.89 626.95 82.58"/>
    <path class="cls-87" d="M493.64,196.95c-3.38,1.72-2.06-.95-3.91-1.75-1.29-.56-3.84,1.37-3.19-3.28,2.26,1.74,4.66,2.86,7.1,5.04Z"/>
  </g>
</svg>